<?xml version="1.0" standalone="no"?>
<!DOCTYPE svg PUBLIC "-//W3C//DTD SVG 20010904//EN"
 "http://www.w3.org/TR/2001/REC-SVG-20010904/DTD/svg10.dtd">
<svg version="1.0" xmlns="http://www.w3.org/2000/svg"
 width="1014.000000pt" height="1014.000000pt" viewBox="0 0 1014.000000 1014.000000"
 preserveAspectRatio="xMidYMid meet">

<g transform="translate(0.000000,1014.000000) scale(0.100000,-0.100000)"
fill="#000000" stroke="none">
<path d="M5115 9898 c-60 -5 -160 -15 -221 -23 -61 -8 -126 -15 -145 -15 -77
0 -299 -61 -349 -95 -20 -14 -46 -25 -59 -25 -13 0 -57 -25 -97 -56 -41 -30
-94 -64 -119 -75 -24 -11 -74 -49 -110 -84 -36 -36 -69 -65 -73 -65 -15 0 -52
-68 -46 -83 4 -12 -2 -18 -23 -23 -30 -8 -73 -47 -73 -68 0 -15 -48 -66 -61
-66 -5 0 -9 -7 -9 -15 0 -8 -9 -19 -20 -25 -11 -6 -30 -31 -42 -56 -11 -25
-31 -52 -44 -61 -13 -8 -26 -25 -30 -36 -4 -12 -21 -40 -39 -62 -18 -22 -39
-53 -47 -70 -8 -16 -45 -85 -81 -152 -44 -81 -74 -150 -88 -205 -12 -46 -25
-87 -29 -93 -4 -5 -10 -23 -14 -40 -4 -16 -20 -63 -37 -103 -16 -39 -34 -92
-39 -117 -6 -25 -15 -66 -20 -92 -6 -25 -16 -54 -23 -62 -15 -17 -62 -163 -72
-221 -6 -36 -38 -173 -57 -245 -6 -22 -18 -51 -27 -65 -10 -14 -24 -40 -31
-58 -7 -19 -38 -57 -69 -85 -30 -29 -65 -62 -77 -73 -12 -12 -27 -38 -32 -58
-6 -20 -31 -60 -56 -90 -50 -58 -55 -72 -28 -79 13 -4 11 -5 -5 -6 -15 -1 -23
-7 -23 -18 -1 -25 -24 -53 -44 -53 -9 0 -24 -15 -32 -34 -16 -32 -15 -35 4
-62 11 -16 23 -51 27 -77 l7 -49 -72 -69 c-44 -43 -79 -88 -92 -117 -47 -108
-58 -131 -67 -137 -18 -10 -73 -129 -103 -220 -44 -133 -59 -259 -52 -439 6
-138 8 -260 5 -327 -1 -36 -31 -48 -131 -52 -105 -4 -256 -39 -303 -69 -64
-42 -71 -81 -17 -93 18 -4 36 -19 48 -38 10 -18 38 -45 63 -62 24 -16 53 -39
64 -50 11 -11 34 -27 50 -35 17 -8 57 -36 90 -61 33 -25 75 -51 94 -57 40 -14
168 -142 177 -178 3 -13 10 -24 15 -24 18 0 9 -41 -14 -63 -74 -74 -163 -95
-392 -93 -185 1 -247 19 -319 90 -29 28 -66 71 -84 96 -59 84 -64 102 -64 249
0 166 16 222 84 289 46 46 97 76 178 106 62 23 97 29 200 33 130 5 200 17 200
33 0 12 -217 12 -315 0 -128 -15 -191 -42 -255 -108 -15 -16 -34 -31 -42 -34
-16 -7 -48 -67 -48 -92 0 -9 -4 -16 -8 -16 -4 0 -14 -26 -21 -57 -29 -134 0
-393 53 -478 54 -85 71 -105 104 -127 39 -25 161 -60 272 -78 36 -6 94 -19
130 -28 54 -15 64 -21 62 -37 -2 -11 -12 -27 -22 -35 -10 -8 -45 -49 -78 -90
-34 -41 -73 -88 -87 -103 -14 -15 -25 -34 -25 -41 0 -7 -9 -21 -19 -30 -10
-10 -34 -54 -51 -99 -18 -45 -41 -100 -50 -122 -10 -22 -20 -51 -23 -65 -3
-14 -12 -57 -20 -96 -9 -38 -19 -92 -22 -120 -7 -49 -39 -136 -62 -164 -98
-122 -122 -182 -130 -325 -7 -138 5 -163 146 -305 61 -60 116 -110 122 -110 6
0 29 -16 50 -35 22 -19 45 -35 53 -35 7 0 19 -6 25 -14 6 -7 30 -16 54 -20 23
-4 69 -15 102 -25 130 -41 334 -66 633 -78 l164 -6 -5 -36 c-3 -20 -10 -58
-16 -85 -9 -41 -8 -52 7 -75 10 -14 26 -43 35 -64 23 -51 75 -115 99 -123 20
-6 128 -109 128 -122 0 -4 14 -16 30 -25 17 -10 30 -25 30 -34 0 -9 27 -42 60
-74 33 -31 60 -65 60 -74 0 -25 113 -135 138 -135 11 0 27 -6 34 -13 7 -7 36
-28 63 -47 28 -18 63 -44 78 -57 15 -12 45 -30 65 -39 20 -9 58 -27 84 -40 27
-13 58 -24 69 -24 12 0 37 -11 55 -25 38 -29 41 -41 49 -200 4 -80 10 -114 22
-127 10 -11 12 -18 5 -18 -17 0 -15 -36 3 -54 8 -8 15 -20 15 -26 0 -6 5 -8
11 -4 13 8 4 125 -11 153 -5 10 -5 22 -1 29 8 13 -10 157 -21 168 -17 16 -7
34 20 34 15 1 72 11 127 24 85 19 105 28 135 57 20 19 73 57 119 84 45 28 101
67 124 87 23 21 47 38 53 38 21 0 161 148 214 226 59 86 90 136 90 143 0 13
20 49 56 101 37 53 57 96 80 170 9 30 22 69 29 85 38 90 54 225 61 521 5 208
3 246 -10 273 -9 16 -16 42 -16 56 0 22 4 26 23 23 19 -3 22 -9 22 -43 0 -26
4 -40 13 -40 8 0 20 -11 27 -25 7 -14 22 -25 32 -25 12 0 19 -10 23 -30 3 -19
17 -37 40 -53 38 -25 48 -43 49 -83 1 -15 15 -53 32 -85 27 -50 33 -73 37
-146 4 -80 6 -87 27 -92 47 -12 54 -29 38 -88 -15 -56 -13 -84 8 -135 11 -27
11 -36 -2 -59 -16 -31 -15 -154 1 -164 6 -4 17 -40 25 -81 19 -92 34 -129 51
-129 16 0 34 31 34 59 0 25 20 38 31 20 5 -8 9 -64 9 -126 0 -61 4 -114 9
-117 4 -3 14 -33 20 -66 7 -33 24 -86 38 -117 29 -63 39 -109 53 -247 5 -48
11 -90 14 -93 2 -3 -4 -24 -14 -48 l-19 -44 31 -10 c42 -15 45 -14 52 12 5 20
12 24 58 26 44 1 56 6 73 28 11 15 22 41 25 57 3 17 10 31 17 31 13 0 63 52
63 66 0 5 4 9 9 9 12 0 25 39 22 67 -1 11 3 24 8 28 6 3 11 12 11 20 0 8 5 26
12 42 6 15 12 31 12 35 1 3 4 10 9 14 4 4 7 22 7 40 0 18 5 45 11 61 7 15 11
41 10 56 -1 17 3 26 9 22 5 -3 10 0 10 8 0 8 6 20 14 26 17 14 41 -11 33 -33
-3 -8 6 -27 21 -41 15 -15 27 -32 27 -39 1 -6 6 -10 13 -9 7 2 9 -4 5 -14 -7
-17 -8 -17 57 3 14 5 20 2 20 -10 0 -10 4 -15 9 -12 5 3 11 0 14 -8 3 -7 22
-17 43 -21 21 -3 49 -15 62 -26 16 -12 29 -16 36 -10 28 23 101 18 166 -11 37
-17 74 -27 86 -24 12 3 35 -1 53 -10 17 -8 35 -13 40 -10 5 4 12 2 16 -4 11
-18 23 -10 30 20 4 17 11 28 16 25 11 -7 23 40 14 55 -3 5 -11 8 -16 4 -16
-10 -50 27 -43 48 4 13 1 16 -9 12 -8 -3 -21 2 -30 10 -20 20 -11 57 11 49 12
-3 10 2 -5 15 -13 11 -23 28 -23 37 0 9 -9 19 -19 22 -11 3 -23 17 -26 32 -7
29 -141 178 -151 168 -4 -3 -18 3 -32 13 -16 13 -40 20 -67 20 l-42 0 -6 -77
c-7 -105 -25 -139 -77 -146 -22 -3 -53 -2 -68 2 -22 6 -28 14 -30 45 l-3 37
-72 -2 c-40 -1 -79 -6 -88 -12 -12 -8 -24 -5 -48 12 -40 29 -39 44 4 77 19 14
35 33 35 41 0 8 11 28 25 45 14 17 25 42 25 59 0 28 13 39 24 20 10 -15 108
-5 117 12 13 23 78 32 93 12 6 -9 29 -21 51 -27 61 -17 203 -21 236 -8 25 11
28 17 27 53 -1 25 -9 50 -19 62 -10 11 -26 29 -36 40 -25 28 -43 72 -37 88 3
8 -6 27 -19 43 -32 37 -67 101 -67 119 0 8 -15 22 -32 30 -18 9 -44 22 -58 30
-14 8 -35 15 -48 15 l-24 0 24 29 c19 24 33 30 83 36 33 4 65 11 71 16 6 5 29
15 50 22 l39 14 -43 27 c-23 14 -42 30 -42 35 0 5 -20 31 -45 57 -46 51 -59
94 -28 94 13 0 10 7 -12 30 -16 17 -35 30 -42 30 -7 0 -13 5 -13 10 0 6 -12
23 -27 39 -33 35 -62 73 -63 84 -1 5 11 23 27 40 16 18 32 40 36 50 3 9 13 17
20 17 8 0 20 7 27 15 7 8 23 15 37 15 38 0 94 28 100 49 3 11 11 22 19 25 8 3
14 14 14 25 0 12 -5 18 -13 16 -11 -5 -17 6 -47 82 -6 17 -20 39 -31 49 -20
18 -26 64 -9 64 14 0 2 59 -23 107 -17 34 -29 44 -54 49 -25 5 -34 12 -39 33
-3 14 -9 33 -14 42 -6 12 5 23 54 49 107 59 108 61 112 189 3 108 -5 158 -29
173 -7 5 -1 8 15 8 15 0 32 8 37 18 6 9 11 11 11 5 0 -18 39 -16 46 2 3 8 16
14 27 13 19 -1 100 33 238 100 40 19 118 84 232 192 44 41 88 83 98 93 11 9
19 24 19 32 0 8 4 15 9 15 8 0 131 143 131 153 0 5 50 118 92 205 11 24 31 53
44 65 14 14 31 51 44 101 11 43 28 95 36 115 28 66 182 535 202 616 11 44 27
118 36 165 8 47 27 114 41 150 24 60 59 193 91 350 7 36 20 90 28 120 9 30 25
108 36 173 11 66 24 126 29 135 14 28 41 235 41 320 0 83 -24 267 -41 317 -5
17 -17 82 -25 145 -7 63 -23 144 -33 180 -49 166 -68 218 -107 295 -23 46 -49
108 -58 137 -18 61 -46 109 -98 170 -42 48 -81 104 -91 131 -3 9 -11 17 -17
17 -5 0 -10 6 -10 14 0 8 -6 16 -13 19 -7 3 -28 33 -46 68 -19 35 -48 78 -65
94 -18 17 -40 42 -49 58 -10 15 -24 27 -32 27 -8 0 -15 6 -15 13 0 11 -76 93
-163 175 -22 21 -53 37 -86 45 -28 6 -51 17 -51 24 0 6 -9 14 -20 18 -11 3
-37 24 -58 46 -22 21 -43 39 -49 39 -5 0 -19 11 -31 25 -12 14 -28 25 -36 25
-8 0 -27 15 -42 33 -15 17 -31 32 -36 32 -5 0 -15 8 -23 18 -7 10 -17 17 -21
16 -5 -1 -22 3 -37 9 -16 7 -47 15 -69 18 -26 5 -42 13 -45 24 -3 10 -23 23
-46 30 -58 17 -205 76 -249 100 -20 11 -46 20 -57 20 -11 0 -23 5 -26 11 -4 6
-13 8 -21 5 -8 -3 -35 1 -61 9 -27 7 -95 18 -153 24 -58 6 -141 17 -185 25
-44 9 -125 16 -180 16 -118 0 -172 4 -240 19 -58 11 -146 11 -300 -1z m105
-190 c0 -4 -7 -8 -17 -8 -9 0 -13 -3 -10 -6 3 -4 23 1 43 11 32 15 42 16 78 4
23 -7 45 -16 51 -21 13 -11 138 -10 215 3 113 19 142 14 270 -50 19 -10 61
-24 93 -31 34 -8 57 -18 57 -27 0 -17 8 -16 43 2 19 10 47 13 85 10 88 -7 132
-16 132 -26 0 -5 15 -9 33 -9 47 2 109 -16 119 -34 5 -9 17 -16 28 -16 19 0
60 -44 60 -65 0 -13 40 -33 76 -38 32 -4 74 -35 84 -63 5 -13 13 -23 17 -22
18 4 99 -27 110 -43 7 -9 33 -23 58 -30 34 -10 52 -23 66 -46 12 -18 27 -33
35 -33 8 0 14 -8 14 -19 0 -12 12 -23 33 -31 17 -7 46 -26 62 -41 66 -61 88
-79 101 -79 7 0 25 -12 41 -28 15 -15 40 -33 55 -39 19 -9 30 -24 38 -53 6
-22 15 -40 21 -40 6 0 9 -9 7 -20 -2 -12 12 -33 38 -57 22 -21 48 -50 58 -65
10 -15 34 -35 54 -46 22 -11 39 -29 45 -48 6 -16 13 -31 17 -34 11 -8 22 -42
31 -90 17 -93 21 -110 29 -110 9 0 56 -76 82 -134 20 -43 57 -86 75 -86 6 0
12 -8 12 -17 -1 -20 21 -79 36 -103 6 -8 11 -28 12 -45 3 -48 37 -200 45 -203
4 -2 8 -19 8 -37 0 -19 4 -36 9 -39 4 -3 9 -57 10 -119 1 -63 6 -129 11 -148
13 -43 13 -218 0 -334 -13 -121 -31 -215 -40 -215 -4 0 -13 -28 -20 -62 -6
-35 -17 -72 -22 -83 -6 -10 -14 -73 -19 -140 -5 -74 -13 -131 -23 -149 -8 -16
-13 -33 -10 -38 3 -4 -2 -18 -10 -30 -8 -13 -15 -26 -15 -31 1 -38 -16 -119
-27 -125 -8 -4 -18 -31 -24 -61 -5 -29 -16 -65 -24 -79 -21 -40 -28 -63 -30
-106 -2 -25 -10 -45 -23 -55 -17 -14 -29 -41 -39 -87 -9 -46 -49 -142 -64
-154 -10 -8 -20 -26 -22 -40 -2 -17 -9 -24 -19 -22 -21 3 -53 -61 -53 -105 0
-29 -4 -33 -43 -42 -33 -9 -43 -16 -43 -31 0 -12 -7 -23 -15 -26 -8 -4 -15
-14 -15 -24 0 -9 -5 -31 -11 -49 -9 -25 -16 -31 -40 -31 -23 0 -29 -5 -29 -21
0 -15 -5 -19 -19 -14 -14 4 -20 -1 -25 -20 -5 -19 -11 -25 -24 -21 -11 4 -24
-3 -36 -19 -10 -14 -25 -25 -32 -25 -10 0 -14 -13 -14 -39 0 -33 -4 -40 -27
-49 -42 -17 -68 -18 -66 -5 4 17 -33 8 -63 -16 -14 -11 -38 -23 -54 -26 -17
-4 -30 -13 -30 -20 0 -23 -39 -43 -72 -38 -37 6 -88 -14 -88 -34 0 -11 -15
-14 -62 -13 -199 2 -236 0 -253 -16 -13 -13 -29 -15 -88 -10 -40 4 -92 8 -117
10 -113 8 -150 22 -214 79 -11 9 -30 17 -43 17 -13 0 -23 4 -23 8 0 5 -22 14
-48 21 -73 20 -73 22 -83 521 -4 252 -14 496 -24 600 -11 114 -17 285 -18 490
-1 298 0 323 24 455 25 135 26 140 51 143 14 2 34 12 44 23 21 24 105 27 124
4 14 -17 66 -10 94 14 10 9 27 35 37 59 15 35 23 42 47 42 16 0 37 9 47 20 10
11 23 20 30 20 7 0 19 8 27 18 13 14 15 43 14 148 -1 125 -2 132 -27 162 -23
26 -26 38 -22 76 7 61 -17 109 -70 143 -23 15 -51 37 -63 50 -13 16 -36 27
-63 30 -24 3 -45 12 -48 20 -9 23 -63 45 -112 45 -25 -1 -56 6 -68 14 -30 19
-43 18 -70 -8 -21 -20 -24 -20 -41 -4 -25 22 -79 23 -119 3 -19 -10 -43 -15
-61 -11 -23 5 -33 1 -49 -20 -16 -19 -30 -26 -57 -26 -29 0 -44 -8 -72 -35
-19 -19 -40 -35 -47 -35 -26 0 -55 -74 -66 -166 -10 -83 -9 -94 9 -131 11 -23
29 -44 40 -48 11 -3 25 -15 30 -26 9 -16 22 -19 90 -19 53 0 91 -5 114 -16 32
-16 37 -16 77 0 37 15 44 15 57 2 13 -13 13 -19 -2 -55 -9 -23 -16 -53 -16
-67 0 -32 26 -84 54 -106 21 -17 21 -18 22 -530 0 -450 3 -545 23 -773 19
-210 22 -295 17 -445 -10 -307 -35 -454 -75 -443 -10 3 -22 0 -25 -6 -13 -21
-44 6 -39 33 4 18 -3 32 -28 55 -19 17 -42 31 -52 31 -27 0 -43 20 -50 63 -6
41 -32 76 -40 54 -3 -6 -6 -2 -6 9 -1 12 -7 24 -15 27 -7 3 -16 19 -19 36 -4
17 -13 31 -20 31 -9 0 -17 15 -21 40 -3 22 -11 40 -16 40 -7 0 -7 7 0 20 14
27 6 38 -24 33 -15 -3 -32 1 -41 11 -9 9 -23 16 -31 16 -8 0 -14 7 -14 15 0 8
-4 23 -9 33 -5 9 -12 25 -15 35 -3 10 -19 25 -36 35 -20 11 -41 39 -61 78 -16
33 -50 79 -74 102 -25 23 -45 46 -45 51 0 5 -19 24 -42 42 -24 19 -46 39 -50
45 -5 7 -16 10 -25 8 -13 -3 -24 6 -38 33 -11 20 -30 40 -42 43 -12 3 -36 18
-54 34 -23 20 -34 25 -37 17 -3 -9 -13 -3 -29 15 -15 18 -26 25 -29 17 -8 -18
-34 -4 -34 18 0 10 -4 19 -8 19 -5 0 -14 17 -20 39 -7 21 -19 44 -27 51 -8 7
-15 19 -15 26 0 7 -13 23 -30 36 -16 12 -30 29 -30 39 0 21 -53 79 -72 79 -19
0 -53 41 -62 73 -3 15 -11 27 -16 27 -6 0 -10 9 -10 20 0 10 -10 25 -22 31
-13 7 -44 34 -70 61 -25 26 -50 48 -56 48 -5 0 -17 9 -27 20 -10 11 -27 22
-38 26 -11 4 -32 17 -46 31 -14 13 -38 27 -53 30 -15 3 -37 16 -49 29 -12 13
-33 24 -46 24 -13 0 -45 10 -71 22 -31 14 -88 26 -166 35 -65 7 -124 17 -130
21 -6 5 -31 8 -54 7 -38 -1 -45 2 -53 23 -7 19 -15 23 -33 20 -18 -4 -27 1
-35 18 -6 13 -8 30 -5 38 3 8 -1 25 -9 37 -9 12 -13 28 -10 35 3 8 -1 14 -10
14 -16 0 -36 49 -42 98 -2 15 -7 53 -11 85 -5 40 -3 57 5 57 6 0 11 14 11 30
0 17 11 53 25 82 14 28 25 62 25 74 0 13 4 25 9 29 6 3 10 13 9 23 0 9 3 60 6
112 4 73 10 101 26 122 11 15 23 41 26 58 4 16 10 30 15 30 5 0 8 3 7 8 -1 4
2 39 7 77 5 39 9 79 10 90 1 11 2 30 3 43 1 12 9 22 17 22 10 0 15 10 15 28 0
47 12 73 37 83 20 7 22 12 13 29 -6 12 -7 20 -1 20 5 0 12 8 15 18 3 9 17 29
30 43 13 14 27 40 31 58 4 18 13 35 21 38 8 3 14 11 14 18 0 7 20 53 45 101
25 49 45 98 45 110 0 22 32 58 43 48 4 -4 9 1 13 10 3 9 12 16 20 16 8 0 14 5
14 10 0 6 7 10 16 10 9 0 21 13 26 28 6 16 21 33 32 38 12 5 25 19 31 32 5 12
17 22 27 22 9 0 28 10 41 23 50 45 74 64 105 83 18 10 32 22 32 26 0 4 9 8 20
8 13 0 25 12 35 36 8 19 19 33 25 29 5 -3 10 -1 10 4 0 6 8 11 17 11 24 0 63
40 63 65 0 30 26 50 85 65 28 7 57 20 65 29 28 29 80 62 90 56 5 -3 11 -1 14
4 3 4 24 11 47 15 23 4 54 13 68 21 27 14 181 45 224 45 13 0 37 7 53 14 41
21 137 45 210 52 47 5 61 10 57 20 -4 10 2 13 21 12 14 -1 26 -6 26 -10z m300
-1703 c0 -15 -53 -12 -57 2 -3 9 5 12 26 10 17 -1 31 -7 31 -12z m237 -41 c-3
-3 -12 -4 -19 -1 -8 3 -5 6 6 6 11 1 17 -2 13 -5z m-40 -76 c71 -31 128 -99
116 -135 -7 -20 -21 -16 -70 22 -60 46 -103 44 -172 -7 -28 -21 -41 -16 -41
18 0 28 -7 29 -34 9 -11 -8 -30 -15 -43 -15 -32 0 -32 49 0 70 60 40 192 60
244 38z m-290 -100 c5 -7 16 -29 24 -48 7 -19 25 -45 39 -57 19 -17 22 -24 13
-34 -20 -21 -63 -2 -79 36 -11 27 -20 34 -46 37 l-33 3 28 26 c15 15 27 31 27
38 0 15 15 14 27 -1z m428 -127 c22 -11 48 -22 58 -25 9 -3 17 -13 17 -22 0
-14 -7 -15 -40 -10 -23 3 -49 2 -60 -4 -29 -15 -48 -2 -52 36 -2 19 -2 37 1
39 9 10 37 5 76 -14z m-2713 -458 c2 -32 2 -64 0 -70 -7 -20 -22 -15 -22 7 0
12 -8 33 -17 47 -13 19 -14 28 -5 31 6 2 12 12 12 23 0 10 6 19 14 19 10 0 15
-17 18 -57z m196 -299 c6 -2 12 -10 12 -19 0 -18 -44 -20 -85 -5 -22 8 -25 13
-15 25 11 13 44 13 88 -1z m332 -172 c0 -4 19 -13 43 -20 41 -13 58 -27 152
-132 12 -14 30 -41 40 -60 10 -19 21 -37 25 -40 10 -7 50 -94 50 -108 0 -7 4
-20 9 -30 8 -16 15 -31 43 -99 7 -18 18 -33 25 -33 7 0 17 -8 22 -17 9 -15 12
-16 20 -4 15 22 39 5 62 -44 12 -25 24 -45 28 -45 4 0 18 -25 32 -55 17 -39
32 -57 51 -64 29 -10 51 -42 43 -63 -3 -7 -7 -29 -9 -48 -2 -21 -13 -41 -27
-52 -13 -10 -29 -22 -36 -28 -7 -5 -24 -10 -38 -10 -14 0 -25 -3 -25 -7 0 -5
-12 -14 -27 -21 -23 -10 -29 -10 -36 3 -12 22 -30 7 -23 -20 3 -13 -1 -36 -9
-51 -8 -16 -15 -36 -15 -44 0 -8 -6 -26 -13 -40 -7 -14 -19 -44 -26 -67 -8
-24 -18 -43 -22 -43 -9 0 -39 -127 -39 -164 0 -15 -4 -26 -9 -26 -6 0 -13 -20
-17 -46 -14 -96 50 -224 113 -224 38 0 63 -13 63 -31 0 -11 -7 -19 -16 -19 -8
0 -13 -4 -10 -9 8 -12 -87 -22 -99 -10 -5 5 -13 9 -17 9 -15 0 -88 -78 -88
-94 0 -21 -18 -30 -80 -37 -139 -17 -179 -35 -180 -80 0 -37 -37 -47 -50 -13
-11 29 -36 32 -43 5 -9 -35 -53 -54 -135 -58 -42 -2 -95 -5 -117 -6 -67 -4
-199 21 -230 44 -6 4 -35 17 -65 29 -30 12 -68 28 -85 35 -16 7 -52 21 -78 31
-51 18 -148 100 -146 125 0 7 3 9 5 3 3 -6 16 -9 30 -6 26 5 52 -6 164 -65 14
-7 37 -13 52 -13 15 0 30 -5 33 -10 4 -6 11 -8 16 -4 5 3 15 1 22 -4 31 -25
209 -18 271 11 49 23 169 60 261 80 22 5 106 100 125 143 15 32 30 48 50 56
16 5 32 18 35 29 4 10 12 19 18 19 16 0 77 56 77 70 0 6 5 8 10 5 14 -9 19 9
30 133 0 1 16 18 35 37 30 29 38 46 50 110 8 42 20 85 26 96 6 12 9 47 6 82
-11 133 -37 354 -47 392 -24 90 -54 173 -83 230 -17 33 -41 81 -54 106 -32 66
-110 183 -149 226 -13 14 -20 32 -17 43 5 19 23 28 23 12z m-458 -25 c24 -8
70 -23 103 -33 124 -37 253 -120 270 -175 4 -10 10 -19 14 -19 23 0 77 -75
126 -175 85 -174 117 -344 96 -521 -18 -155 -42 -308 -51 -329 -5 -11 -14 -36
-20 -56 -6 -20 -26 -54 -45 -77 -19 -22 -35 -46 -35 -54 0 -22 -34 -69 -96
-134 -55 -57 -64 -62 -134 -79 -41 -9 -87 -26 -102 -36 -14 -11 -29 -19 -33
-19 -4 0 -19 -9 -35 -20 -42 -30 -195 -29 -253 2 -10 5 -46 14 -79 19 -34 6
-88 19 -121 30 -58 19 -161 79 -182 104 -5 7 -17 16 -26 21 -41 22 -124 137
-179 249 -78 158 -88 229 -27 206 20 -8 31 -6 51 10 14 11 26 27 26 35 0 14 7
24 38 59 20 23 5 78 -35 124 l-34 40 -52 -19 c-29 -11 -53 -20 -54 -20 -2 0
-3 21 -3 48 0 83 16 157 71 342 26 86 64 167 90 191 16 14 29 28 29 32 0 8 32
45 85 97 39 39 146 110 167 110 5 0 39 12 76 27 108 43 262 52 354 20z m-812
-1522 c7 -8 19 -15 27 -15 7 0 23 -15 33 -33 11 -19 38 -48 60 -66 52 -42 77
-78 62 -93 -7 -7 -21 -4 -46 12 -20 12 -36 25 -36 28 0 4 -17 25 -37 47 -92
100 -104 115 -98 125 9 14 20 13 35 -5z m153 -367 c6 -8 7 -24 2 -34 -6 -15
-8 -16 -13 -4 -3 8 -11 21 -19 28 -14 15 -8 35 10 29 6 -2 15 -10 20 -19z
m110 -29 c10 0 35 -8 55 -19 116 -58 226 -100 263 -100 22 0 99 -41 99 -52 0
-12 -86 -9 -117 4 -15 6 -59 15 -98 19 -90 9 -242 49 -277 73 -27 17 -38 46
-19 46 5 0 11 10 14 21 5 18 11 20 34 15 15 -4 36 -7 46 -7z m2036 -334 c-4
-166 32 -406 66 -445 7 -8 17 -37 21 -65 4 -27 18 -69 30 -94 13 -24 24 -50
24 -57 0 -7 5 -14 10 -16 6 -2 13 -21 16 -43 3 -22 8 -47 11 -55 4 -8 7 -18 7
-22 3 -21 38 -49 55 -43 21 6 34 -16 24 -41 -7 -20 36 -114 53 -114 9 0 12
-42 11 -180 -1 -165 -7 -209 -24 -162 -3 9 -14 28 -23 42 -10 14 -21 40 -25
58 -3 17 -11 32 -16 32 -6 0 -21 25 -34 55 -14 30 -29 55 -34 55 -4 0 -16 21
-26 48 -10 26 -21 49 -25 52 -4 3 -14 19 -23 36 -9 17 -25 42 -37 55 -11 13
-43 62 -71 109 -28 47 -67 101 -88 120 -20 19 -45 48 -55 63 -9 16 -32 35 -49
42 -18 7 -55 37 -84 67 -28 29 -70 66 -93 81 -22 16 -48 40 -57 53 -27 41 -65
78 -114 108 -50 32 -86 83 -70 99 14 14 52 -7 105 -55 22 -21 46 -38 52 -38 7
0 26 -13 42 -29 16 -17 42 -33 58 -37 16 -4 44 -15 62 -26 23 -14 42 -18 65
-14 29 5 34 12 45 54 7 26 19 102 27 169 18 151 33 190 87 224 34 22 45 25 60
15 16 -9 18 -23 17 -101z m-758 -11 c14 -13 29 -24 33 -24 11 0 96 -89 96
-100 0 -16 -39 -12 -72 8 -50 28 -108 84 -108 104 0 11 -7 18 -20 18 -13 0
-18 5 -14 15 8 20 52 9 85 -21z m-911 -115 c8 -12 134 -28 205 -26 36 0 82 -6
115 -18 30 -10 61 -20 68 -21 7 -1 24 -10 38 -19 25 -16 88 -13 100 6 3 5 17
9 32 9 35 0 47 9 57 39 5 18 9 20 16 10 6 -11 9 -11 14 2 5 14 13 14 53 6 26
-6 61 -20 77 -32 17 -12 46 -27 66 -34 20 -6 45 -20 57 -31 12 -11 30 -20 40
-20 20 0 102 -72 102 -90 0 -5 5 -10 11 -10 11 0 49 -32 146 -122 17 -16 33
-41 35 -56 2 -20 11 -28 36 -34 36 -10 197 -162 187 -177 -8 -14 46 -61 71
-61 17 0 25 -7 30 -24 3 -14 12 -27 20 -30 8 -3 14 -12 14 -20 0 -8 8 -21 18
-28 24 -17 34 -45 19 -51 -8 -3 -4 -11 11 -22 12 -9 22 -22 22 -30 0 -26 23
-65 39 -65 14 0 14 -2 1 -10 -12 -7 -11 -12 9 -29 23 -20 21 -41 -5 -41 -16 0
-20 -75 -4 -85 6 -3 10 -20 10 -36 0 -17 7 -37 15 -45 8 -9 15 -27 15 -40 0
-14 10 -44 21 -67 19 -36 23 -39 29 -23 6 18 7 18 13 2 10 -26 8 -99 -3 -116
-9 -13 -10 -13 -10 0 0 11 -4 9 -12 -5 -18 -30 -40 -51 -74 -68 -27 -14 -31
-21 -29 -52 1 -20 5 -38 8 -41 3 -3 30 -6 59 -6 69 0 86 -5 93 -29 4 -11 16
-28 27 -38 18 -17 19 -25 10 -78 -10 -56 -58 -198 -74 -218 -5 -5 -17 -22 -29
-37 -11 -16 -30 -28 -41 -28 -12 0 -18 3 -15 7 4 3 2 12 -5 20 -6 8 -12 54
-13 106 -2 113 -7 128 -46 151 -27 16 -45 18 -121 13 -49 -3 -95 -10 -101 -15
-13 -10 -51 -9 -84 2 -16 5 -38 -1 -73 -20 -46 -25 -53 -26 -88 -15 -20 7 -49
13 -65 15 -15 1 -33 11 -40 21 -10 13 -21 16 -45 10 -34 -7 -49 -5 -45 7 2 4
-7 10 -20 13 -13 4 -28 15 -35 25 -10 17 -7 20 36 26 58 10 164 9 259 0 60 -7
75 -5 89 8 12 12 31 16 72 14 49 -2 57 0 54 15 -2 13 5 17 33 17 23 0 38 5 42
16 3 9 12 13 21 9 13 -5 14 7 9 92 -7 101 -23 163 -43 163 -17 0 -46 -67 -52
-118 -3 -27 -8 -39 -13 -31 -6 10 -11 10 -22 1 -11 -10 -17 -9 -27 3 -13 15
-65 15 -141 -1 -22 -4 -29 0 -41 24 -8 16 -12 37 -8 48 4 10 6 45 5 77 -1 31
2 60 6 63 5 3 2 19 -7 35 -19 37 -28 31 -30 -19 0 -20 -6 -38 -12 -40 -7 -2
-12 -20 -12 -39 0 -23 -11 -51 -31 -80 -21 -32 -27 -49 -20 -56 20 -20 12 -37
-19 -37 -20 0 -30 5 -30 15 0 8 -12 18 -27 21 -16 4 -41 14 -58 22 -16 8 -51
16 -78 16 -27 1 -51 6 -55 11 -9 12 -45 16 -52 6 -3 -4 -17 -11 -32 -15 -25
-6 -28 -3 -28 17 0 28 -17 47 -37 40 -7 -3 -13 -2 -12 3 1 5 0 16 -4 24 -3 8
-9 29 -13 45 -6 25 -8 26 -12 10 -2 -11 -15 -30 -27 -43 -13 -12 -21 -30 -18
-40 3 -14 -4 -18 -37 -20 -22 -1 -40 2 -40 7 0 6 -8 18 -19 28 -10 10 -24 36
-31 58 -7 22 -17 51 -22 65 l-10 25 -14 -25 c-7 -14 -13 -34 -14 -44 0 -10 -8
-25 -17 -32 -13 -9 -15 -16 -7 -24 13 -13 -9 -89 -29 -103 -9 -6 -9 -10 1 -14
16 -6 15 -23 -2 -23 -8 0 -17 12 -21 27 -6 27 -7 27 -21 8 -9 -11 -13 -30 -11
-42 3 -17 -1 -23 -14 -23 -10 0 -19 -9 -21 -22 -2 -12 -9 -23 -17 -26 -10 -3
-13 2 -9 22 3 14 2 26 -3 26 -4 0 -9 10 -11 22 -4 30 -64 46 -86 24 -13 -12
-13 -18 -2 -30 10 -14 9 -16 -7 -16 -15 0 -20 7 -20 28 -1 68 -5 139 -10 155
-5 18 -6 18 -24 1 -10 -9 -19 -14 -19 -10 0 4 -7 1 -15 -8 -8 -8 -15 -20 -15
-26 0 -8 -6 -8 -20 0 -11 6 -20 21 -20 35 0 36 -19 41 -26 7 -4 -18 -16 -34
-30 -41 -28 -12 -30 -23 -9 -41 13 -11 13 -16 -2 -44 -22 -44 -53 -62 -53 -31
0 7 -7 18 -15 23 -9 4 -16 17 -16 28 0 10 2 82 5 160 4 129 7 145 31 189 20
35 24 50 15 55 -9 5 -9 9 -1 14 6 4 11 21 11 37 0 27 -2 29 -20 19 -11 -6 -20
-20 -20 -30 0 -11 -4 -28 -9 -38 -23 -46 -41 -95 -41 -112 0 -10 -4 -22 -10
-25 -5 -3 -10 -19 -10 -35 0 -16 -10 -45 -21 -65 -12 -20 -28 -53 -34 -73 -7
-20 -19 -37 -27 -38 -36 -3 -39 -5 -36 -30 2 -21 -4 -31 -31 -46 l-34 -20 -29
31 c-32 34 -34 41 -13 41 8 0 15 5 15 10 0 6 -7 10 -17 10 -15 0 -14 2 2 20
14 16 15 24 6 51 -6 18 -9 35 -6 37 3 3 -2 14 -11 23 -14 16 -15 23 -4 49 10
23 10 34 1 43 -13 13 -15 31 -3 23 5 -3 9 1 9 9 0 10 -11 15 -34 15 -28 0 -33
-4 -33 -22 0 -38 -26 -102 -35 -88 -11 18 -6 154 6 158 5 2 9 15 9 28 0 26 31
47 38 26 8 -26 39 -12 46 20 3 17 4 33 1 36 -3 3 -5 -3 -5 -14 -1 -18 -1 -18
-14 -1 -8 10 -20 15 -29 11 -11 -4 -17 5 -22 36 -4 23 -4 44 -1 47 3 4 1 12
-5 20 -8 9 -8 17 0 26 6 8 8 17 4 20 -14 15 -23 6 -23 -22 0 -17 -4 -32 -9
-36 -10 -5 -18 -50 -26 -135 -2 -25 -8 -76 -14 -114 -8 -58 -7 -72 5 -81 13
-9 13 -14 -6 -37 -11 -15 -19 -30 -18 -35 3 -12 -54 -73 -69 -73 -16 0 -43
-52 -43 -84 0 -14 -4 -28 -10 -31 -5 -3 -10 -17 -10 -31 0 -18 -5 -24 -22 -24
-13 0 -31 7 -41 15 -18 13 -17 14 10 29 17 9 22 15 12 16 -18 0 -48 30 -31 30
12 0 33 56 25 64 -4 3 -1 6 5 6 7 0 12 -6 13 -12 0 -10 2 -10 6 0 2 6 11 12
20 12 10 0 12 6 7 23 -8 25 -6 205 3 257 3 19 10 38 16 41 5 4 11 26 12 50 1
24 6 52 10 62 4 9 5 24 1 32 -3 8 0 15 7 15 7 0 13 8 13 18 1 22 22 101 45
175 11 31 19 63 19 71 0 7 7 19 15 26 8 7 15 16 15 21 0 5 -7 9 -15 9 -19 0
-19 14 -1 30 16 13 11 35 -15 64 -17 18 -18 18 -43 -7 -24 -24 -31 -43 -27
-74 1 -7 -2 -13 -7 -13 -6 0 -17 -17 -27 -37 -9 -21 -25 -54 -36 -73 -10 -19
-19 -47 -19 -61 0 -15 -7 -32 -15 -39 -8 -7 -15 -18 -15 -26 0 -7 -11 -30 -25
-50 -14 -20 -25 -45 -25 -55 0 -10 -10 -44 -21 -76 -21 -55 -25 -72 -28 -120
-1 -15 -7 -23 -18 -23 -13 0 -14 -3 -5 -12 15 -15 16 -48 2 -48 -5 0 -10 -18
-10 -40 0 -22 -4 -40 -10 -40 -14 0 -12 -56 3 -81 10 -17 9 -22 -7 -35 -30
-21 -42 -17 -54 19 l-10 32 -1 -29 c-2 -51 -27 -12 -41 65 -12 62 -12 73 1 83
10 8 13 25 9 61 -4 41 -9 50 -25 52 -11 2 -31 -6 -44 -17 -18 -16 -22 -27 -18
-49 3 -15 2 -32 -3 -37 -4 -5 -16 -54 -25 -109 -16 -93 -28 -121 -47 -109 -4
3 -8 -2 -8 -10 0 -9 7 -16 15 -16 8 0 15 -4 15 -9 0 -22 -13 -41 -29 -41 -22
0 -90 64 -130 123 -28 41 -34 59 -35 108 0 32 -5 59 -10 59 -17 0 3 70 28 96
13 15 34 46 47 70 12 24 29 51 39 61 22 24 56 113 52 136 -2 10 1 24 6 30 15
19 34 114 43 217 1 8 5 20 9 25 4 6 11 29 15 52 3 23 13 47 21 54 8 6 14 20
14 31 0 50 114 188 156 188 12 0 24 7 28 15 3 8 17 20 31 25 14 5 30 20 36 32
6 13 27 31 47 40 44 20 149 27 176 11 11 -6 27 -7 35 -3 9 4 27 13 41 19 14 6
32 15 40 20 8 5 48 17 88 26 72 16 72 16 101 -7 26 -21 43 -58 45 -100 2 -28
16 -34 23 -9 l6 23 13 -23 c10 -18 13 -20 14 -7 0 9 4 18 9 20 5 2 11 19 13
38 3 37 42 90 65 90 7 0 13 4 13 10 0 5 13 7 28 4 19 -4 32 -1 41 10 14 16 50
13 61 -5z m1743 -1164 c-3 -8 -9 -15 -14 -15 -10 0 -12 24 -3 33 11 11 24 -3
17 -18z m687 -15 c0 -5 -5 -10 -11 -10 -5 0 -7 5 -4 10 3 6 8 10 11 10 2 0 4
-4 4 -10z m-1865 -240 c3 -5 1 -10 -4 -10 -6 0 -11 5 -11 10 0 6 2 10 4 10 3
0 8 -4 11 -10z m1845 -14 c0 -8 -4 -18 -10 -21 -5 -3 -10 3 -10 14 0 12 5 21
10 21 6 0 10 -6 10 -14z m-2983 -208 c12 -13 33 -33 48 -45 33 -28 19 -36 -44
-25 -36 6 -46 12 -54 35 -6 19 -5 32 3 42 17 20 23 19 47 -7z m330 -45 c20
-18 15 -33 -12 -35 -14 -1 -40 -2 -57 -4 -60 -4 -101 9 -103 33 -1 17 7 23 39
32 82 21 83 21 133 -26z m274 20 c0 -5 2 -18 5 -29 4 -26 -14 -31 -103 -26
-59 4 -61 4 -45 23 9 10 26 19 37 19 11 0 27 5 35 10 18 11 70 13 71 3z m3167
-31 c6 -56 -48 -111 -64 -67 -5 11 -15 14 -38 10 -38 -7 -52 2 -61 37 -6 22
-2 29 22 41 17 9 50 15 83 14 55 -2 55 -2 58 -35z m-2463 -71 c3 -5 1 -12 -5
-16 -5 -3 -10 1 -10 9 0 18 6 21 15 7z m45 -25 c0 -11 -19 -15 -25 -6 -3 5 1
10 9 10 9 0 16 -2 16 -4z m-40 -21 c0 -8 -4 -15 -10 -15 -5 0 -10 7 -10 15 0
8 5 15 10 15 6 0 10 -7 10 -15z m-720 -81 c6 -14 10 -38 10 -53 0 -15 9 -44
20 -66 11 -22 20 -46 20 -55 0 -8 10 -34 22 -57 12 -23 19 -45 15 -50 -11 -11
-77 27 -77 45 0 8 -17 40 -39 71 -34 51 -38 62 -35 111 2 38 8 58 20 67 25 19
33 16 44 -13z m1534 -3 c3 -5 20 -11 38 -15 27 -5 35 -13 44 -41 10 -32 9 -35
-9 -35 -17 0 -18 -2 -6 -16 10 -13 10 -21 -3 -47 -9 -18 -19 -58 -23 -89 -5
-41 -11 -58 -21 -58 -8 0 -17 -7 -20 -15 -4 -8 -15 -15 -25 -15 -10 0 -19 -7
-19 -15 0 -8 -4 -15 -10 -15 -5 0 -10 -13 -10 -28 0 -42 -102 -159 -149 -172
-29 -7 -42 -19 -62 -57 -14 -27 -31 -47 -37 -45 -7 1 -12 -5 -12 -13 0 -18 -5
-18 -31 -5 -13 8 -25 7 -39 0 -36 -19 -162 -28 -168 -12 -1 5 -12 7 -24 4 -18
-4 -20 -2 -16 22 3 14 1 29 -5 33 -6 3 -7 1 -3 -5 5 -8 0 -12 -13 -12 -17 0
-21 -6 -21 -30 0 -22 -6 -33 -21 -38 -18 -7 -14 -11 33 -35 33 -16 70 -26 98
-27 78 -1 210 12 210 21 0 4 9 11 20 14 11 4 18 10 16 14 -3 4 18 18 46 31 28
12 73 45 99 71 27 27 56 49 64 49 7 0 20 8 27 18 7 9 25 25 41 35 15 10 27 24
27 32 0 9 11 20 24 25 29 11 96 78 96 96 0 16 65 48 82 41 9 -3 13 6 14 25 2
43 44 68 44 27 0 -13 -8 -23 -20 -26 -14 -4 -19 -11 -15 -23 8 -26 -10 -64
-49 -102 -20 -19 -36 -39 -36 -44 0 -5 -20 -31 -45 -58 -25 -27 -45 -52 -45
-56 0 -3 -21 -26 -47 -52 -59 -56 -79 -80 -76 -90 2 -4 -18 -17 -45 -29 -26
-12 -61 -32 -78 -45 -17 -13 -52 -30 -78 -38 -27 -8 -55 -21 -64 -29 -29 -26
-93 -37 -214 -37 -122 0 -183 10 -255 41 -24 11 -53 19 -65 19 -24 0 -62 22
-92 53 -10 9 -25 17 -35 17 -25 0 -78 28 -93 48 -7 10 -25 25 -40 35 -16 10
-28 25 -28 33 0 10 -6 14 -14 11 -19 -7 -28 3 -16 18 7 8 4 11 -10 11 -10 -1
-18 2 -17 5 3 11 -35 49 -49 49 -8 0 -16 11 -20 25 -3 13 -10 23 -16 22 -9 -2
-61 124 -53 131 4 4 83 -75 128 -128 15 -18 25 -35 23 -38 -12 -12 71 -58 106
-59 21 -1 53 -10 71 -22 19 -12 37 -21 41 -21 12 0 6 32 -9 46 -21 22 -19 44
5 44 12 0 20 7 21 18 1 16 2 16 6 0 2 -10 8 -18 11 -18 8 0 24 -36 42 -92 8
-28 21 -41 52 -57 37 -18 44 -18 68 -6 15 8 30 11 34 8 3 -4 6 3 6 15 0 25
-32 37 -60 22 -11 -6 -21 -7 -22 -3 0 4 -2 13 -3 18 0 6 -9 24 -18 42 -10 18
-16 37 -15 42 2 5 -1 9 -7 9 -12 1 -23 30 -24 64 -1 15 -7 31 -15 35 -17 11
-36 47 -36 71 0 11 -7 25 -15 32 -9 7 -15 20 -14 29 4 41 -2 49 -38 54 -24 4
-40 2 -46 -6 -5 -7 -7 0 -5 20 4 25 0 34 -19 42 -28 13 -30 37 -3 46 19 6 29
26 13 24 -37 -6 -63 3 -63 21 0 14 7 20 23 20 12 0 29 5 37 10 12 8 11 11 -8
16 -18 5 -20 9 -11 20 13 16 39 19 39 4 0 -5 16 -10 35 -10 24 0 35 5 35 15 0
18 49 21 54 3 20 -71 31 -98 40 -99 6 0 2 -4 -9 -9 -17 -7 -17 -9 -2 -9 13 -1
17 -10 17 -36 0 -19 4 -35 8 -35 5 0 12 -19 18 -42 7 -33 13 -42 27 -40 10 2
17 -3 17 -13 0 -24 25 -45 54 -45 14 0 26 -4 26 -10 0 -5 -15 -10 -32 -10
l-32 0 32 -30 c21 -19 44 -30 62 -30 29 0 30 0 23 48 -6 51 -23 90 -58 137
-32 43 -38 70 -37 155 0 59 4 77 19 87 11 9 19 10 21 3 2 -5 15 -10 28 -10 16
0 28 -8 34 -22 5 -13 20 -34 34 -47 14 -13 26 -34 26 -47 0 -19 5 -24 26 -24
19 0 25 4 20 15 -4 11 8 24 39 44 29 18 41 31 34 38 -17 17 1 43 30 43 29 0
51 -16 51 -37 0 -7 10 -24 23 -39 26 -30 35 -55 36 -107 1 -40 35 -178 52
-209 12 -23 57 -53 66 -44 4 3 1 12 -5 18 -7 7 -12 29 -12 49 0 21 -5 50 -11
66 -6 15 -13 87 -15 160 -3 110 -2 134 12 147 14 14 17 14 40 0 13 -9 24 -24
24 -34 0 -10 11 -25 25 -34 14 -9 25 -25 25 -36 0 -11 7 -20 15 -20 8 0 15 -7
15 -15 0 -8 -4 -15 -10 -15 -21 0 -9 -45 15 -57 14 -6 25 -7 25 -2 0 5 6 9 13
9 9 0 13 14 12 43 -1 39 -3 42 -27 39 -25 -2 -26 -1 -25 58 0 37 4 60 11 60 7
0 20 14 29 30 18 29 59 42 71 21z m-1251 -105 c3 -8 18 -20 32 -28 15 -7 34
-26 43 -43 10 -16 20 -32 25 -33 21 -10 27 -43 12 -65 -14 -22 -14 -26 0 -37
19 -16 19 -44 0 -60 -20 -17 -65 5 -65 30 0 10 -7 23 -15 30 -8 6 -17 22 -21
33 -8 29 -32 85 -50 119 -17 33 -17 33 2 52 19 20 30 20 37 2z m682 -36 c3 -5
-1 -10 -9 -10 -9 0 -16 5 -16 10 0 6 4 10 9 10 6 0 13 -4 16 -10z m-790 -229
c3 -5 1 -12 -5 -16 -5 -3 -10 1 -10 9 0 18 6 21 15 7z m3026 -185 c0 -20 1
-20 9 -1 7 15 9 10 9 -22 1 -33 -3 -43 -15 -43 -8 0 -12 5 -9 10 7 11 -17 40
-33 40 -18 0 -21 29 -5 39 23 13 43 3 44 -23z"/>
<path d="M4115 5812 c-13 -9 -17 -32 -6 -32 9 0 24 30 18 36 -1 2 -7 0 -12 -4z"/>
<path d="M2490 4070 c0 -20 -5 -30 -15 -30 -12 0 -15 -16 -15 -81 0 -55 3 -78
11 -73 6 3 9 17 6 30 -2 13 0 24 4 24 5 0 9 7 9 16 0 10 6 14 15 10 12 -4 15
3 15 34 0 22 -4 40 -10 40 -5 0 -10 9 -10 20 0 11 5 20 10 20 6 0 10 5 10 10
0 6 -7 10 -15 10 -10 0 -15 -10 -15 -30z"/>
<path d="M3950 3988 c0 -6 7 -20 17 -30 9 -10 11 -18 5 -18 -7 0 -7 -8 1 -24
9 -19 21 -25 52 -28 56 -6 62 -9 103 -45 20 -18 40 -33 44 -33 4 0 8 -4 8 -10
0 -5 10 -20 23 -33 12 -13 40 -49 62 -80 26 -36 42 -52 47 -44 11 17 10 57 -1
57 -9 0 -25 51 -21 66 1 4 -5 11 -14 16 -9 5 -16 17 -16 28 0 27 -46 77 -77
84 -69 16 -142 51 -156 76 -16 27 -77 42 -77 18z m67 -54 c-3 -3 -12 -4 -19
-1 -8 3 -5 6 6 6 11 1 17 -2 13 -5z"/>
<path d="M2740 3913 c0 -17 -6 -38 -12 -45 -7 -7 -14 -24 -15 -38 -5 -68 -18
-126 -31 -139 -10 -10 -13 -28 -9 -57 5 -45 -4 -69 -25 -69 -7 0 -14 -10 -16
-22 -2 -12 -10 -27 -18 -33 -16 -14 -18 -36 -4 -45 16 -10 50 14 50 35 0 10 7
26 16 34 8 9 18 32 21 51 3 19 11 35 17 35 6 0 21 22 33 48 29 61 34 202 10
248 l-16 29 -1 -32z"/>
<path d="M2130 3868 c-11 -12 -25 -37 -32 -55 -7 -18 -15 -33 -19 -33 -12 0
-27 -92 -22 -127 3 -18 11 -33 18 -33 8 0 10 9 7 25 -3 19 0 25 13 25 13 0 16
6 11 23 -3 15 0 26 13 34 10 6 28 39 41 72 31 83 16 118 -30 69z"/>
<path d="M3033 3782 c-6 -5 -4 -14 8 -26 19 -19 19 -19 19 2 0 24 -11 34 -27
24z"/>
<path d="M3010 3694 c0 -20 15 -25 35 -10 17 12 16 13 -8 18 -18 4 -27 1 -27
-8z"/>
<path d="M4320 3547 c0 -31 6 -49 24 -68 13 -14 26 -34 27 -44 6 -30 25 -28
39 5 9 21 9 34 2 43 -5 6 -12 23 -14 37 -2 15 -14 30 -30 38 -16 7 -28 17 -28
23 0 5 -4 9 -10 9 -5 0 -10 -19 -10 -43z"/>
<path d="M3220 3550 c0 -5 7 -10 15 -10 8 0 15 5 15 10 0 6 -7 10 -15 10 -8 0
-15 -4 -15 -10z"/>
<path d="M2010 3476 c0 -9 5 -16 10 -16 6 0 10 4 10 9 0 6 -4 13 -10 16 -5 3
-10 -1 -10 -9z"/>
<path d="M2580 3434 c0 -14 4 -23 10 -19 6 3 10 15 10 26 0 10 -4 19 -10 19
-5 0 -10 -12 -10 -26z"/>
<path d="M2002 3369 c2 -6 8 -10 13 -10 5 0 11 4 13 10 2 6 -4 11 -13 11 -9 0
-15 -5 -13 -11z"/>
<path d="M1964 3331 c-4 -17 -10 -31 -15 -31 -5 0 -9 -7 -9 -15 0 -8 6 -12 13
-9 18 6 38 72 26 80 -5 3 -12 -8 -15 -25z"/>
<path d="M3212 3305 c0 -16 2 -22 5 -12 2 9 2 23 0 30 -3 6 -5 -1 -5 -18z"/>
<path d="M3720 3291 c0 -6 5 -13 10 -16 6 -3 10 1 10 9 0 9 -4 16 -10 16 -5 0
-10 -4 -10 -9z"/>
<path d="M2524 3271 c3 -5 15 -7 26 -4 28 7 25 13 -6 13 -14 0 -23 -4 -20 -9z"/>
<path d="M3706 3231 c-3 -5 1 -14 9 -21 13 -10 15 -9 15 9 0 21 -14 28 -24 12z"/>
<path d="M4252 3200 c0 -14 2 -19 5 -12 2 6 2 18 0 25 -3 6 -5 1 -5 -13z"/>
<path d="M3691 3168 c0 -16 -5 -28 -11 -28 -5 0 -10 -18 -10 -40 0 -29 4 -40
15 -40 11 0 15 11 15 40 0 25 5 40 13 40 8 0 9 2 1 8 -7 4 -14 16 -17 27 -4
15 -5 14 -6 -7z"/>
<path d="M2411 3154 c0 -11 3 -14 6 -6 3 7 2 16 -1 19 -3 4 -6 -2 -5 -13z"/>
<path d="M1788 2984 c-5 -4 -8 -16 -8 -28 0 -14 3 -17 11 -9 6 6 9 19 7 28 -1
9 -6 13 -10 9z"/>
<path d="M4086 2017 c3 -10 9 -15 12 -12 3 3 0 11 -7 18 -10 9 -11 8 -5 -6z"/>
<path d="M4320 1920 c0 -11 5 -20 10 -20 6 0 10 9 10 20 0 11 -4 20 -10 20 -5
0 -10 -9 -10 -20z"/>
<path d="M3940 1891 c0 -6 5 -13 10 -16 6 -3 10 1 10 9 0 9 -4 16 -10 16 -5 0
-10 -4 -10 -9z"/>
<path d="M3955 1850 c3 -5 8 -10 11 -10 2 0 4 5 4 10 0 6 -5 10 -11 10 -5 0
-7 -4 -4 -10z"/>
<path d="M4090 9690 c0 -5 5 -10 11 -10 5 0 7 5 4 10 -3 6 -8 10 -11 10 -2 0
-4 -4 -4 -10z"/>
<path d="M2800 7334 c0 -8 4 -14 8 -14 5 0 17 6 27 14 18 13 17 14 -8 14 -16
0 -27 -6 -27 -14z"/>
<path d="M2634 7139 c-9 -10 -24 -21 -33 -24 -10 -3 -23 -22 -30 -43 -8 -20
-16 -43 -18 -49 -3 -7 2 -13 11 -13 12 0 16 9 16 34 0 28 4 35 23 38 12 2 26
13 32 26 5 12 18 25 27 28 10 3 18 9 18 13 0 14 -30 8 -46 -10z"/>
<path d="M2520 6950 c0 -11 4 -20 9 -20 11 0 22 26 14 34 -12 12 -23 5 -23
-14z"/>
<path d="M2530 6890 c0 -19 3 -21 12 -12 9 9 9 15 0 24 -9 9 -12 7 -12 -12z"/>
<path d="M7215 3813 c-4 -27 -10 -60 -15 -74 -5 -16 -4 -31 2 -37 6 -6 6 -12
-1 -16 -5 -4 -7 -14 -4 -23 4 -9 0 -21 -9 -27 -25 -19 -58 -272 -60 -476 -2
-125 14 -491 22 -515 2 -5 0 -21 -4 -34 -5 -14 -4 -26 2 -30 6 -4 15 -29 20
-56 6 -31 11 -41 12 -25 9 102 -10 352 -29 387 -5 11 -6 24 -2 29 8 8 16 126
26 374 2 58 9 125 15 149 6 24 8 57 5 73 -5 21 -2 30 10 34 11 4 15 18 15 43
-1 20 1 89 4 154 5 122 2 150 -9 70z"/>
<path d="M6690 1447 c-48 -39 39 -187 110 -187 15 0 56 43 51 55 -4 11 -9 36
-10 48 -1 5 -5 6 -10 3 -5 -3 -11 8 -15 25 -3 19 -13 33 -25 36 -11 3 -22 11
-25 19 -7 17 -55 18 -76 1z"/>
<path d="M3804 748 c-4 -6 2 -19 14 -29 12 -9 22 -26 22 -38 0 -18 -3 -19 -26
-11 -58 22 -123 1 -149 -50 -45 -87 22 -181 119 -166 23 4 63 8 91 9 37 1 50
6 53 19 2 9 -5 19 -17 23 -20 6 -21 14 -21 131 l0 124 -39 0 c-22 0 -43 -5
-47 -12z m16 -138 c41 -41 10 -110 -50 -110 -37 0 -70 31 -70 65 0 34 33 65
70 65 17 0 39 -9 50 -20z"/>
<path d="M4264 745 c-9 -22 4 -35 37 -35 l29 0 0 -99 0 -100 -42 -3 c-35 -2
-43 -7 -43 -23 0 -19 7 -20 110 -20 103 0 110 1 110 20 0 16 -8 21 -42 23
l-43 3 0 125 0 124 -55 0 c-39 0 -57 -4 -61 -15z"/>
<path d="M6060 735 c0 -21 5 -25 30 -25 25 0 30 4 30 25 0 21 -5 25 -30 25
-25 0 -30 -4 -30 -25z"/>
<path d="M2527 734 c-4 -4 -7 -20 -7 -35 0 -21 -5 -28 -22 -31 -13 -2 -23 -10
-23 -18 0 -8 10 -19 23 -25 19 -9 22 -17 22 -72 0 -55 3 -64 26 -82 45 -35
169 -17 169 25 0 15 -6 18 -30 15 -16 -2 -48 -4 -70 -5 l-40 -1 -3 57 -3 57
58 3 c50 3 58 6 58 23 0 17 -8 20 -57 23 -56 3 -57 3 -60 35 -3 30 -25 47 -41
31z"/>
<path d="M8907 734 c-4 -4 -7 -20 -7 -35 0 -21 -5 -28 -22 -31 -13 -2 -23 -10
-23 -18 0 -8 10 -19 23 -25 19 -9 22 -17 22 -72 0 -55 3 -64 26 -82 32 -25 79
-27 134 -5 50 20 53 51 5 45 -17 -2 -48 -4 -70 -5 l-40 -1 -3 58 -3 57 48 0
c56 0 78 11 70 34 -5 12 -20 16 -61 16 -54 0 -55 0 -58 32 -3 31 -25 48 -41
32z"/>
<path d="M896 659 c-22 -17 -26 -18 -26 -4 0 13 -9 16 -47 13 -40 -3 -48 -6
-48 -23 0 -13 8 -21 23 -23 20 -3 22 -9 22 -57 0 -51 -1 -54 -27 -57 -20 -2
-28 -9 -28 -23 0 -19 7 -20 100 -20 93 0 100 1 100 20 0 17 -8 20 -47 23 -47
3 -48 4 -48 37 0 27 7 39 35 61 32 24 39 25 59 14 44 -23 65 16 24 44 -31 22
-60 20 -92 -5z"/>
<path d="M1394 665 c-16 -9 -38 -29 -47 -44 -72 -122 104 -232 200 -127 45 49
45 93 0 142 -39 43 -102 55 -153 29z m110 -56 c15 -12 26 -30 26 -44 0 -28
-43 -65 -75 -65 -32 0 -75 37 -75 65 0 28 43 65 75 65 12 0 34 -9 49 -21z"/>
<path d="M3134 666 c-43 -19 -64 -53 -64 -101 0 -79 57 -121 150 -112 74 8 90
15 90 39 0 18 -5 19 -73 13 -64 -6 -75 -5 -97 14 l-25 20 98 1 97 0 0 30 c0
41 -27 80 -67 96 -40 17 -69 17 -109 0z m109 -58 l22 -23 -37 -3 c-21 -2 -55
-2 -75 0 l-38 3 23 23 c13 13 34 22 52 22 18 0 39 -9 53 -22z"/>
<path d="M4874 665 c-16 -9 -38 -29 -47 -44 -72 -122 104 -232 200 -127 45 49
45 93 0 142 -39 43 -102 55 -153 29z m110 -56 c15 -12 26 -30 26 -44 0 -28
-43 -65 -75 -65 -32 0 -75 37 -75 65 0 28 43 65 75 65 12 0 34 -9 49 -21z"/>
<path d="M5448 665 c-114 -64 -42 -242 83 -208 34 9 39 8 39 -6 0 -28 -22 -41
-71 -41 -46 0 -61 -11 -52 -37 3 -8 25 -13 60 -13 47 0 59 4 84 29 28 29 29
32 29 130 0 92 2 100 21 106 12 4 19 14 17 23 -3 13 -16 18 -53 19 -28 1 -68
5 -90 8 -26 3 -49 0 -67 -10z m102 -55 c26 -26 25 -64 -2 -90 -28 -25 -62 -26
-88 0 -40 40 -11 110 45 110 14 0 34 -9 45 -20z"/>
<path d="M6623 664 c-32 -16 -63 -66 -63 -102 0 -89 106 -139 204 -98 42 18
52 34 33 53 -14 14 -18 14 -38 -1 -33 -23 -104 -21 -129 4 -42 42 -6 110 57
110 30 0 63 -21 63 -41 0 -5 9 -9 19 -9 23 0 35 30 26 68 -5 27 -8 28 -73 30
-44 1 -78 -4 -99 -14z"/>
<path d="M7812 664 c-12 -8 -22 -10 -22 -5 0 6 -16 11 -35 11 -40 0 -60 -26
-32 -42 24 -13 24 -106 0 -123 -30 -22 -9 -45 42 -45 51 0 72 23 41 46 -13 9
-16 23 -14 55 2 35 8 46 30 59 41 22 62 5 66 -54 2 -36 -1 -51 -14 -61 -31
-22 -10 -45 41 -45 51 0 72 23 42 45 -12 9 -17 28 -17 69 0 47 -4 61 -25 81
-28 29 -70 32 -103 9z"/>
<path d="M8354 666 c-43 -19 -64 -53 -64 -101 0 -79 57 -121 150 -112 74 8 90
15 90 39 0 18 -5 19 -73 13 -64 -6 -75 -5 -97 14 l-25 20 98 1 97 0 0 30 c0
41 -27 80 -67 96 -40 17 -69 17 -109 0z m109 -58 l22 -23 -37 -3 c-21 -2 -55
-2 -75 0 l-38 3 23 23 c13 13 34 22 52 22 18 0 39 -9 53 -22z"/>
<path d="M1907 663 c-13 -13 -7 -32 13 -38 17 -5 20 -15 20 -66 0 -50 4 -64
25 -84 28 -29 70 -32 103 -9 12 8 22 10 22 5 0 -6 16 -11 35 -11 40 0 60 26
32 42 -14 7 -17 25 -17 88 l0 80 -44 0 c-28 0 -46 -5 -49 -14 -6 -16 11 -36
30 -36 9 0 13 -14 13 -43 0 -48 -22 -77 -56 -77 -35 0 -44 21 -44 97 l0 73
-38 0 c-21 0 -42 -3 -45 -7z"/>
<path d="M6014 655 c-8 -21 4 -35 32 -35 22 0 24 -3 24 -54 l0 -55 -37 -3
c-30 -2 -38 -7 -38 -23 0 -19 7 -20 105 -20 98 0 105 1 105 20 0 16 -8 21 -42
23 l-43 3 0 80 0 79 -50 0 c-35 0 -52 -4 -56 -15z"/>
<path d="M7224 495 c-9 -23 3 -45 24 -45 25 0 46 25 38 45 -7 19 -55 20 -62 0z"/>
</g>
</svg>
